<svg xmlns="http://www.w3.org/2000/svg" version="1.1" xmlns:xlink="http://www.w3.org/1999/xlink" width="638.8844" height="762.9602"><svg id="SvgjsSvg1001" data-name="Layer 1" xmlns="http://www.w3.org/2000/svg" viewBox="0 0 638.8844 762.9602">
  <path d="M335.4239,762.9602c-45.5272,0-89.3944-7.5464-129.8145-22.5406-65.4369-24.2742-119.2838-66.7681-155.7195-122.8877C11.6092,558.5689-5.1641,487.8579,1.3839,413.0429c3.4278-39.1651,13.2451-79.2065,29.1786-119.0113,16.646-41.5834,40.0889-83.1673,69.6779-123.5969,12.2845-16.7852,25.1269-32.3836,38.4993-46.7706-37.1675-16.397-76.3879-35.2955-114.1429-55.6251-11.7347-6.3183-16.1254-20.9535-9.8066-32.6882,6.3179-11.7347,20.9535-16.1254,32.6882-9.8066,36.8642,19.8497,83.6125,42.3033,129.0857,61.8483,35.3765-30.0664,73.8839-52.6742,115.2072-67.5767C333.123,4.9031,375.6084-1.6475,418.05.3505c71.8713,3.3807,128.5625,32.4089,147.9503,75.7559,11.4395,25.5768,7.9037,52.6648-9.6999,74.3175-18.2052,22.3914-50.18,37.2699-92.4666,43.027-45.2499,6.1602-101.157,2.0841-166.1641-12.1152-24.952-5.4507-64.858-18.8201-111.2382-37.5223-16.5676,16.3615-32.33,34.7479-47.2436,55.1255-27.2028,37.1688-48.6739,75.1972-63.8181,113.0289-14.1745,35.4108-22.8906,70.8331-25.9058,105.2837-5.6002,63.9856,8.5452,124.1535,40.9069,173.9984,30.7399,47.3478,76.3935,83.2826,132.0242,103.919,58.8066,21.8139,126.5302,25.4319,195.8478,10.4635,61.6958-13.324,107.5816-42.871,136.3814-87.821,29.0166-45.2876,35.5835-98.2605,35.9828-134.7232.485-44.4093-11.5227-85.5492-33.813-115.8414-25.4834-34.6322-63.0635-54.6495-111.6959-59.4969-7.6732-.7648-47.9056-4.2055-86.5527,3.1892-24.7806,4.7411-55.9795,15.4522-63.8849,39.5546-9.2264,28.1309-2.4505,50.3985,4.8589,64.1253,9.2886,17.4425,24.0715,29.3722,33.8734,32.1402,22.67,6.4023,42.5154,4.9832,57.387-4.1057,12.1157-7.4041,16.3053-16.8015,16.6935-18.7314,1.5237-7.6175,2.6523-18.6654,3.1776-31.1076.5596-13.1637,11.3136-23.589,24.4833-23.739.0951-.0013.192-.0017.2871-.0017,13.042,0,23.8766,10.1241,24.7292,23.1709.707,10.7788,2.624,49.1448-2.4072,90.0311-5.7802,46.9784-18.74,81.5001-38.5177,102.6061-23.5475,25.1294-57.7178,38.9479-96.2672,38.9479-.2057,0-.4088,0-.6144-.0009-30.6491-.1165-62.8223-9.2183-83.9647-23.754-17.7257-12.1859-33.8974-29.8624-45.537-49.7721-11.6452-19.92-18.0587-40.7569-18.0587-58.6725,0-13.3274,10.8041-24.1319,24.1319-24.1319s24.1319,10.8045,24.1319,24.1319c0,18.9962,17.1477,51.1235,42.6748,68.6732,23.4305,16.1091,84.706,27.4115,118.2859-8.423,11.856-12.653,19.6578-36.2793,24.1362-63.7465-19.1419,9.4548-48.2887,16.2505-87.8699,5.0723-24.3847-6.8874-48.6611-28.3079-63.3557-55.9028-16.5706-31.1196-19.4538-67.2905-8.1184-101.8511,8.4059-25.6295,32.6955-58.9107,100.675-71.9176,44.0613-8.4299,87.9941-5.0488,100.4097-3.8105,61.9238,6.1718,112.3343,33.4612,145.7831,78.9181,28.457,38.6732,43.7991,90.1592,43.1992,144.9737-.671,61.3496-15.75,116.7571-43.6054,160.2331-35.9854,56.165-92.1161,92.8239-166.8317,108.9596-31.3844,6.7768-62.5673,10.1507-93.0065,10.1515ZM227.8577,108.3495c31.036,11.9473,59.1489,21.2551,80.1118,25.8338,124.9401,27.2911,191.686,9.4038,210.8819-14.2058,6.0338-7.4217,7.045-15.3258,3.091-24.1653-9.6099-21.4856-46.1617-44.4285-106.1599-47.2509-36.0685-1.6968-72.2844,3.9064-107.6377,16.6563-28.2102,10.1734-55.018,24.5865-80.2871,43.132Z" fill="#5ac5c9"></path>
</svg><style>@media (prefers-color-scheme: light) { :root { filter: none; } }
@media (prefers-color-scheme: dark) { :root { filter: none; } }
</style></svg>